<svg xmlns="http://www.w3.org/2000/svg" width="522.375" height="110.203" viewBox="0 0 522.375 110.203">
  <path id="Trazado_1" data-name="Trazado 1" d="M707.612,597.5l-3.359-.346-2.775-1.784-1.969-2.539.018-2.775,1.385-3,3.358-2.239,5.937-2.006,8.259-1.721,8.839-2.244,7.544-2.012,6.374-.834.718-1.174,1.837-5.551.347-6.673-.006-5.476-1.415-4.044-4.057-4.753-4.64-3.3-1.176-.621-2.582,1.622-4.943,1.629-2.254.9-3.767.663-3.71-.306L714,547.052l-1.4-2.718.627-2.911,1.436-2.176,2.14-1.562,4.146-2.1,6.033-.318,4.367,1.6,1.279.677,2.051-1.3,5.364-5.475,7.75-8.631,3.065-6.936.469-6.8-.446-5.958-2.441-4.205-2.367-2.647-6.355-1.711-5.577-.611-8.96.572-26.713,95.921a3,3,0,1,1-5.78-1.61l27.859-100.036,13.759-.822,6.536.709,8.533,2.263,3.92,4.493,3.469,5.868.547,7.768-.543,8.295-4.021,8.712-8.353,9.5-5.96,5.964,4.267,3.1,5.294,6.078,2.122,6.064v6.7l-.512,7.656-1.487,4.493,2.516-.449,1.888-.746,3.348-1.943,2.786-2.169,3.681-2.946,2.5-4.242,2.893-6.626,1.494-6.43,1.427-4.865,1.32-6.936,5.9,1.112-4.93,26.658.516,2.951.23.43,1.188.594,1.975.275,2.775-.536,2.259-.961,1.353-1.431a26.215,26.215,0,0,1,2.6-3.379,29.268,29.268,0,0,1,3.354-3.1l4.227-2.447,5.128-2.468.022-1.938.6-3.752,2.106-5.59,2.8-5.667,2.235-3.08,2.715-2.849,3.27-2.748,2.167-1.661,3-1.515,4.708-.857,3.263.768,3.22,2.214,1.565,3.8-.8,4.165-.91,3.97-5.09,6.886-5.754,4.952-7.254,4.673-5.988,2.219-.124,5.873.807,2.2,1.579,1.952,1.7,1.939,2.213,1.1,3.337-.04,3.007-.473,3-1.223,6.9-4.69,7-5.666,6.894-5.792,3.957-4.968,1.775-5.579,1.63-5.986,1.4-4.775,5.813,1.468-1.45,6.848.644-.465,6.291-4.926,2.8-2.088,3.463-2.278,2.971-.542,5.5.311,2.763,3.558.653,5.548.021,8.122-2.374,7.61-2.509,7.249-.46,2.288.576,3.126.385,1.1,1.228.821,2.43.606.718-.041,2.09-1.095,4.73-4.915,7.978-8.53,3.07-4.4,2.371-7.795,2.131-11.033,5.933.839L905.3,556.47l-.045,4.347,1.892,6.292,1.178,2.916.3.59.3-.2,4.713-5.621,6.62-8,5.042-7.584-.755-1.376-.153-4.12.259-3.744.732-2.855,1.077-2.005.864-1.482.951-1.3,2.8-2.582,1.472-1.018,3.042-1.109,4.752.562,2.037,4.075-.9,2.695-1.3,2.451-4.014,6.04-3.365,5.29,1.127.334,3.612-.249,5.372-.733,3.8-1.416h3.75l.544-2.488,3.345-7.5,3.52-4.161,3.738-3.484,4.553-3.04,4.5-.871,4.019.292,4.151,2.767.948,3.034.137,3.674-.548,3.268-4.407,8.786-5.333,5.035-4.456,2.98-4.056,2.36-5.067,1.606-1.2-.171-.153,1.4.559,4.921.99,2.285,2.6,2.037,2.774.99,2.943.461,3.331-.646,4.254-2.017,7.688-4.8,7.61-5.443,8.748-10.909,2.053-6.931,2.24-7,5.766,1.647-1.329,5.28,1.569-1.42,5.549-4.522,4.572-3.273,5.442-2,4.969.532,4.206,2.944.829,5.3-.624,5.424-1.8,5.053-2,3.754-2.4,6.935-1.879,5.638-.512,3.67.506,2.929.9,1.3,1.361.2,3.316-1.244c.412-.337,4.387-3.925,7.615-6.95l9.432-8.877,3.819-5.166,3.552-8.039,1.742-8.547,5.887,1.156-3.608,19.983-1.1,6.88-.7,4.727.464,1.917,1.417,1.5,1.649.594,2.926-.683,2.563-1.681,3.451-3.583,4.679-5.263,6.053-5.8,2.727-7.316,3.927-7.765,4.219-5.531,4.663-3.5,4.12-1.64,4.225-.253,5.272,1.281,3.269,3.632,1.589,4.477.774,3.924,9.021-32.229,1.1-4.354,2.253-7.613,5.764,1.664-3.209,11.413-2.228,8.845-7.6,26.56-.142.065-5.288,18.807-.119,4.476,1.465,2.509.988.493.688-.076,3.986-2.59,8.041-6.728,14.635-12.126v14.153l.4,3.187,1.278,2.322,3.282,1.65,4.391-.214,2.763-.913,1.736-1.586,3.3-5.919c-.047-.007.531-1.908,1.1-3.862a2.492,2.492,0,0,1-.606-.081c-.086-.022-9.237-2.457-10.883-3.28-1.408-.7-3.176-2.7-4.412-4.255l-2.17-3.822-1.13-5.15.4-3.937,1.453-3.636,2.347-3.9,4.336-2.793,6.406-.893,5.851,1.624,5.41,4.817,1.611,3.758.154,2.933-.4,3.756h0s-.386,3.638-.765,6.962l.919-.26c.536-.145,1.092-.295,1.707-.505,1.653-.565,2.994-1.188,3.047-1.213l6.407-4.156,5.3-3.827,8.056-6.919.2-5.127,3.286-3.59,2.538-2,5.267-2.046,5.366,3.067v4.6l-2.118,2.965-2.563,1.809-2.5,1.423.147.168,5.043,9.081c4.533,10.247,4.533,11.38,4.533,11.989a12.576,12.576,0,0,1,1.483,4.753,22.619,22.619,0,0,1-.443,6.44l-2.176,5.983L1207.2,577.2l-5.327,2.466-5.7.326-4.743-2.108-2.478-3.1-2.269-5.019.636-4.133a3,3,0,1,1,5.93.912l-.375,2.436,1.178,2.748,1.079,1.232,2.15.956,3.146-.18,3.738-1.671,3.054-2.383,1.462-3.965a18.8,18.8,0,0,0,.223-4.1,12.356,12.356,0,0,0-.958-3.272,5.482,5.482,0,0,1-.561-2.135c-.18-.584-2.179-5.416-3.908-9.336l-4.6-8.372-.4-.471-8.633,7.472-5.63,4.072-6.89,4.44a32.008,32.008,0,0,1-4,1.65c-.747.256-1.424.441-2.078.619l-1.046.3c-.9.275-1.709.514-2.443.723-.718,2.612-2.233,7.562-2.233,7.562l-4.162,7.291-3.278,3.179-4.82,1.461-6.692.417-6.356-3.2-2.733-4.967-.564-4.709,0-1.76L1123.768,573.5l-5.465,3.576-3.86.429-4.171-2.082-3.241-5.549.19-4.555-5.064,4.834-5.208,3.9-6.111,2.73-6.615-1.219-3.918-3.919-1.789-5.042v-4.666l-1.5,1.432-4.631,5.217-4.162,4.169-4,2.481-5.5,1.427-4.667-1.68-3.547-3.762-.87-4.716.693-5.745.253-1.582-.159.217-9.781,9.266c-8.264,7.746-9.071,8.015-9.72,8.231l-4.664,1.751-5.461-.809-3.172-4.559-.73-5.259.637-5.031,2.015-6.184,2.609-7.418,2.023-3.8,1.466-4.034.472-3.916-.367-1.863-.907-.635-2.106-.226-3.411,1.173-3.653,2.762-5.282,4.307-3.8,3.437-1.735,1.785-8.387,25.161-5.755-1.681,3.123-12.4-2.342,2.835-8.341,6.082-8.211,5.1-5.4,2.436-5.08.859-4.5-.646-4.1-1.583L951.3,571.1l-1.826-4.638-.749-6.351.275-2.623-2.327-1.074.359-3.5-2.722.966-6.292.9-4.861.151-3.811-.993-4.283,6.425-6.846,8.3-5.36,6.2-2.5,1.8-1.409.939-4.621-2.174-1.476-2.951-1.365-3.386-1.217-3.969-.925-3.6-.015-2.225-.954,1.412-8.309,8.923-5.529,5.523-4.034,2.267H877.49l-4.17-.948-3.781-2.527-1.161-3.468-.893-4.685.8-3.822,2.6-7.582,2.209-6.628-.154-6.823-.432-3.532-.107-.138-2.081-.154-.926.225-2.387,1.566-2.6,1.941-6.327,4.953-4.236,3.061-6.657,23.967-5.826-1.424,2.5-11.823-6.242,5.3-7.261,5.865-7.715,5.158-4.221,1.695-4.044.671-5.191.089-4.572-2.279-2.55-2.92-2.319-2.863-1.34-4.329.046-3.994-2.265,1.093-3.66,2.1c.071-.015-1.167.962-2.267,2.172a27.133,27.133,0,0,0-2.3,2.989l-2.615,2.835-4.046,1.637-4.368.9-3.963-.732-3.787-1.762-1.463-3.3-.067-.436-.713,1.218-4.595,3.676-3.181,2.437-4.135,2.376L752.2,580.27l-6.2,1.15-1.286.185-4.479,4.449-5.265,3.82-5.047,2.939-7.043,2.622-7.223,1.277Zm-1.262-6.131,1.345.168,7.171-.767,6.482-1.109,6.042-2.26,4.327-2.558,2.161-1.56-5.065,1.37-9.005,2.283-8.09,1.672-4.879,1.564-1.092.809ZM1087.143,570l2.986.55,3.837-1.659,4.327-3.317,7.975-7.662,1.166-4.029.1-3.819-21.624,9.875-1.4,2.311v3.321l.99,2.791Zm14.782-36.707-2.411.167-2.431,1.077-3.334,2.528-3.3,4.455-3.487,6.976-1.943,5.251,22.686-10.36.038-1.438-.757-3.6-1.06-2.9-1.289-1.432Zm-280.014-1.547-2.709.417-1.631.933-4.484,3.713-2.23,2.337-1.706,2.33-2.408,4.961-1.834,4.75-.236,1.648,3.085-1.118,6.338-4.145,4.958-4.209,3.863-5.352.612-2.665.441-2.3-.2-.5-.822-.565ZM955.5,552.779l.084.012,3.161-.948,3.272-1.995,3.9-2.567,4.175-4,3.657-7.053.212-1.887-.049-2.234-1.334-.889-1.665-.175-2.389.567-3.231,2.122-3.143,2.97-2.829,3.2-2.659,6.162-.912,4.4Zm195.046-17.894-1.435,2.347-1.043,2.5-.212,2.192.784,3.264,1.57,2.512a21.223,21.223,0,0,0,2.221,2.267c.89.38,8.058,2.4,9.56,2.772-.009-.033.181-.1.524-.209.417-3.452,1.038-9.407,1.038-9.407l.384-3.284-.1-1.327-.678-1.582-3.37-3-3.308-.918-3.863.538ZM722.5,541.509l-2.6,1.287-.565.436,2.149-.435,1.832-.8,2.056-.641Zm212.68-7.452-.04.013-.4.4-2.065,1.888-.36.576-1.47,2.523-.319,1.667.613-.963Z" transform="translate(-692.576 -487.293)" fill="#707070"/>
</svg>
