<svg width="536.8" height="75.1" viewBox="0 0 536.8 75.1" xmlns="http://www.w3.org/2000/svg">

<g id="svgGroup" stroke-linecap="round" fill-rule="evenodd" font-size="9pt" stroke="#000" stroke-width="0.25mm" fill="none" style="stroke:#000;stroke-width:0.25mm;fill:none">

<path d="M 157.35 74.3 L 145 74.3 L 145 23 L 152.55 23 A 3.874 3.874 0 0 1 153.815 23.193 Q 155.17 23.659 155.7 25.25 L 156.55 29.3 Q 158.1 27.7 159.825 26.4 Q 161.55 25.1 163.475 24.15 Q 165.4 23.2 167.6 22.7 A 19.991 19.991 0 0 1 170.506 22.27 A 24.822 24.822 0 0 1 172.4 22.2 A 21.089 21.089 0 0 1 176.348 22.553 A 16.271 16.271 0 0 1 179.85 23.625 A 14.775 14.775 0 0 1 184.999 27.308 A 14.466 14.466 0 0 1 185.275 27.625 Q 187.45 30.2 188.575 33.775 Q 189.7 37.35 189.7 41.65 L 189.7 74.3 L 177.35 74.3 L 177.35 41.65 A 16.313 16.313 0 0 0 177.119 38.81 Q 176.641 36.11 175.175 34.375 A 6.927 6.927 0 0 0 171.607 32.162 Q 170.448 31.845 169.055 31.806 A 14.19 14.19 0 0 0 168.65 31.8 Q 165.45 31.8 162.65 33.25 A 20.473 20.473 0 0 0 158.78 35.877 A 24.629 24.629 0 0 0 157.35 37.2 L 157.35 74.3 Z M 317.55 74.3 L 305.2 74.3 L 305.2 23 L 312.75 23 A 3.874 3.874 0 0 1 314.015 23.193 Q 315.37 23.659 315.9 25.25 L 316.75 29.3 Q 318.3 27.7 320.025 26.4 Q 321.75 25.1 323.675 24.15 Q 325.6 23.2 327.8 22.7 A 19.991 19.991 0 0 1 330.706 22.27 A 24.822 24.822 0 0 1 332.6 22.2 A 21.089 21.089 0 0 1 336.548 22.553 A 16.271 16.271 0 0 1 340.05 23.625 A 14.775 14.775 0 0 1 345.199 27.308 A 14.466 14.466 0 0 1 345.475 27.625 Q 347.65 30.2 348.775 33.775 Q 349.9 37.35 349.9 41.65 L 349.9 74.3 L 337.55 74.3 L 337.55 41.65 A 16.313 16.313 0 0 0 337.319 38.81 Q 336.841 36.11 335.375 34.375 A 6.927 6.927 0 0 0 331.807 32.162 Q 330.648 31.845 329.255 31.806 A 14.19 14.19 0 0 0 328.85 31.8 Q 325.65 31.8 322.85 33.25 A 20.473 20.473 0 0 0 318.98 35.877 A 24.629 24.629 0 0 0 317.55 37.2 L 317.55 74.3 Z M 27.3 74.3 L 0 74.3 L 0 2 L 24.95 2 A 63.174 63.174 0 0 1 29.983 2.19 Q 33.934 2.506 37.075 3.35 Q 41.646 4.578 44.728 6.758 A 16.966 16.966 0 0 1 45.325 7.2 A 15.258 15.258 0 0 1 49.192 11.541 A 14.554 14.554 0 0 1 50.05 13.25 A 18.904 18.904 0 0 1 51.373 18.297 A 23.89 23.89 0 0 1 51.55 21.25 Q 51.55 23.8 50.8 26.125 Q 50.05 28.45 48.475 30.475 A 16.249 16.249 0 0 1 46.042 32.971 A 20.072 20.072 0 0 1 44.475 34.15 A 21.272 21.272 0 0 1 41.546 35.805 A 28.33 28.33 0 0 1 38.7 36.95 A 28.03 28.03 0 0 1 44.999 39.102 Q 53.153 43.141 53.577 52.057 A 20.9 20.9 0 0 1 53.6 53.05 A 21.184 21.184 0 0 1 52.696 59.301 A 19.387 19.387 0 0 1 51.85 61.55 Q 50.1 65.45 46.75 68.275 A 22.213 22.213 0 0 1 41.991 71.312 A 28.745 28.745 0 0 1 38.5 72.7 A 31.311 31.311 0 0 1 32.899 73.948 A 42.526 42.526 0 0 1 27.3 74.3 Z M 432.8 74.3 L 425.25 74.3 A 3.874 3.874 0 0 1 423.985 74.107 Q 422.63 73.641 422.1 72.05 L 421.1 67.1 A 30.828 30.828 0 0 1 417.968 70.167 A 28.411 28.411 0 0 1 417.75 70.35 Q 416 71.8 413.975 72.85 Q 411.95 73.9 409.625 74.475 A 19.744 19.744 0 0 1 406.251 74.994 A 23.787 23.787 0 0 1 404.6 75.05 Q 400.4 75.05 396.9 73.3 A 17.022 17.022 0 0 1 391.205 68.647 A 19.86 19.86 0 0 1 390.875 68.225 A 21.343 21.343 0 0 1 388.413 64.019 A 29.001 29.001 0 0 1 386.975 60 A 35.388 35.388 0 0 1 385.944 54.75 Q 385.621 52.125 385.601 49.192 A 57.132 57.132 0 0 1 385.6 48.8 A 36.945 36.945 0 0 1 386.268 41.663 A 31.825 31.825 0 0 1 387.15 38.2 A 27.462 27.462 0 0 1 389.615 32.583 A 23.588 23.588 0 0 1 391.6 29.7 Q 394.5 26.1 398.55 24.075 A 19.287 19.287 0 0 1 405.413 22.154 A 23.617 23.617 0 0 1 407.65 22.05 A 22.578 22.578 0 0 1 410.937 22.277 Q 412.749 22.544 414.276 23.125 A 13.07 13.07 0 0 1 415 23.425 Q 418.05 24.8 420.45 27.1 L 420.45 0 L 432.8 0 L 432.8 74.3 Z M 536.25 28.55 L 533.45 33 A 4.937 4.937 0 0 1 533.108 33.484 Q 532.921 33.716 532.726 33.886 A 2.189 2.189 0 0 1 532.4 34.125 A 2.184 2.184 0 0 1 531.797 34.364 Q 531.528 34.428 531.214 34.445 A 4.154 4.154 0 0 1 531 34.45 Q 530.154 34.45 529.197 34.008 A 6.423 6.423 0 0 1 529.075 33.95 Q 528.194 33.52 527.073 32.998 A 182.256 182.256 0 0 0 526.7 32.825 Q 525.35 32.2 523.625 31.7 Q 522.132 31.267 520.172 31.209 A 20.93 20.93 0 0 0 519.55 31.2 A 13.896 13.896 0 0 0 517.273 31.375 Q 515.195 31.721 513.8 32.75 A 5.416 5.416 0 0 0 512.443 34.162 A 4.756 4.756 0 0 0 511.7 36.8 A 4.179 4.179 0 0 0 511.96 38.297 A 3.784 3.784 0 0 0 512.775 39.575 A 8.108 8.108 0 0 0 514.025 40.631 Q 514.648 41.063 515.406 41.443 A 13.737 13.737 0 0 0 515.625 41.55 A 24.77 24.77 0 0 0 517.74 42.439 A 32.312 32.312 0 0 0 519.65 43.075 A 131.491 131.491 0 0 1 524.103 44.5 A 142.857 142.857 0 0 1 524.25 44.55 Q 526.6 45.35 528.85 46.375 Q 531.1 47.4 532.875 48.975 Q 534.65 50.55 535.725 52.75 Q 536.736 54.819 536.796 57.684 A 17.422 17.422 0 0 1 536.8 58.05 A 17.734 17.734 0 0 1 536.162 62.866 A 15.904 15.904 0 0 1 535.45 64.875 Q 534.1 68 531.5 70.275 A 17.022 17.022 0 0 1 527.666 72.779 A 21.825 21.825 0 0 1 525.075 73.825 A 24.001 24.001 0 0 1 520.693 74.82 A 32.829 32.829 0 0 1 516.3 75.1 Q 513.65 75.1 511.125 74.625 Q 508.6 74.15 506.275 73.3 A 27.499 27.499 0 0 1 502.792 71.755 A 24.498 24.498 0 0 1 501.975 71.3 A 22.402 22.402 0 0 1 499.692 69.784 A 18.608 18.608 0 0 1 498.5 68.8 L 501.35 64.1 Q 501.9 63.25 502.65 62.8 Q 503.318 62.399 504.303 62.355 A 5.553 5.553 0 0 1 504.55 62.35 A 3.979 3.979 0 0 1 506.661 62.96 A 4.74 4.74 0 0 1 506.725 63 Q 507.682 63.607 508.922 64.301 A 66.26 66.26 0 0 0 509.1 64.4 A 17.836 17.836 0 0 0 510.544 65.114 Q 511.298 65.448 512.16 65.759 A 29.297 29.297 0 0 0 512.275 65.8 A 9.967 9.967 0 0 0 513.884 66.215 Q 514.711 66.361 515.674 66.416 A 21.383 21.383 0 0 0 516.9 66.45 A 15.486 15.486 0 0 0 518.584 66.363 Q 519.74 66.237 520.675 65.925 Q 522.25 65.4 523.275 64.55 A 5.447 5.447 0 0 0 524.341 63.38 A 4.848 4.848 0 0 0 524.775 62.575 Q 525.25 61.45 525.25 60.25 A 4.939 4.939 0 0 0 525.073 58.895 A 3.838 3.838 0 0 0 524.175 57.3 Q 523.132 56.184 521.43 55.351 A 13.369 13.369 0 0 0 521.325 55.3 A 24.116 24.116 0 0 0 519.298 54.446 A 31.943 31.943 0 0 0 517.275 53.775 A 133.643 133.643 0 0 1 512.699 52.325 A 145.707 145.707 0 0 1 512.625 52.3 Q 510.25 51.5 507.975 50.425 Q 505.7 49.35 503.925 47.7 A 12.076 12.076 0 0 1 501.428 44.382 A 14.136 14.136 0 0 1 501.075 43.65 Q 500.102 41.477 500.01 38.484 A 20.63 20.63 0 0 1 500 37.85 Q 500 34.7 501.25 31.85 Q 502.5 29 504.925 26.875 A 16.401 16.401 0 0 1 508.228 24.651 A 21.598 21.598 0 0 1 510.975 23.475 A 21.717 21.717 0 0 1 515.144 22.48 Q 517.116 22.201 519.333 22.2 A 34.362 34.362 0 0 1 519.35 22.2 A 27.847 27.847 0 0 1 525.161 22.785 A 23.229 23.229 0 0 1 529 23.95 A 24.274 24.274 0 0 1 533.213 26.12 A 19.556 19.556 0 0 1 536.25 28.55 Z M 246.1 23 L 225.75 74.3 L 214.55 74.3 L 194.15 23 L 204.4 23 A 4.656 4.656 0 0 1 205.463 23.116 A 3.455 3.455 0 0 1 206.675 23.65 A 3.505 3.505 0 0 1 207.571 24.545 A 3.235 3.235 0 0 1 207.95 25.3 L 217.85 52.7 A 52.298 52.298 0 0 1 219.108 56.751 A 47.034 47.034 0 0 1 219.275 57.4 Q 219.85 59.7 220.3 62 Q 220.75 59.7 221.325 57.4 Q 221.9 55.1 222.8 52.7 L 232.95 25.3 Q 233.3 24.3 234.2 23.65 A 3.424 3.424 0 0 1 235.838 23.029 A 4.418 4.418 0 0 1 236.35 23 L 246.1 23 Z M 132.1 50.2 L 100.4 50.2 Q 100.95 58.1 104.65 61.8 A 12.418 12.418 0 0 0 111.636 65.283 A 17.549 17.549 0 0 0 114.45 65.5 A 21.721 21.721 0 0 0 116.751 65.384 Q 117.938 65.258 118.961 64.992 A 12.021 12.021 0 0 0 119.625 64.8 A 28.744 28.744 0 0 0 121.603 64.087 Q 122.587 63.688 123.425 63.25 Q 124.821 62.52 125.923 61.9 A 62.119 62.119 0 0 0 126.275 61.7 A 5.827 5.827 0 0 1 127.314 61.228 A 4.194 4.194 0 0 1 128.65 61 A 3.16 3.16 0 0 1 129.289 61.062 A 2.373 2.373 0 0 1 129.95 61.3 A 2.817 2.817 0 0 1 130.785 62 A 3.331 3.331 0 0 1 130.9 62.15 L 134.5 66.65 Q 132.45 69.05 129.9 70.675 Q 127.35 72.3 124.575 73.275 Q 121.8 74.25 118.925 74.65 A 41.144 41.144 0 0 1 114.198 75.04 A 37.015 37.015 0 0 1 113.35 75.05 Q 108 75.05 103.4 73.275 Q 98.8 71.5 95.4 68.025 A 23.377 23.377 0 0 1 91.262 62.177 A 28.712 28.712 0 0 1 90.05 59.425 Q 88.1 54.3 88.1 47.55 A 28.799 28.799 0 0 1 89.31 39.136 A 26.85 26.85 0 0 1 89.8 37.675 A 23.845 23.845 0 0 1 94.284 30.058 A 22.939 22.939 0 0 1 94.675 29.625 A 22.74 22.74 0 0 1 101.719 24.521 A 26.28 26.28 0 0 1 102.425 24.2 Q 107 22.2 112.75 22.2 Q 117.6 22.2 121.675 23.75 Q 125.75 25.3 128.7 28.275 Q 131.65 31.25 133.3 35.575 Q 134.95 39.9 134.95 45.45 Q 134.95 46.85 134.825 47.775 A 5.647 5.647 0 0 1 134.718 48.351 Q 134.591 48.876 134.375 49.225 Q 134.05 49.75 133.5 49.975 A 2.702 2.702 0 0 1 133.004 50.121 Q 132.754 50.17 132.464 50.189 A 5.702 5.702 0 0 1 132.1 50.2 Z M 292.3 50.2 L 260.6 50.2 Q 261.15 58.1 264.85 61.8 A 12.418 12.418 0 0 0 271.836 65.283 A 17.549 17.549 0 0 0 274.65 65.5 A 21.721 21.721 0 0 0 276.951 65.384 Q 278.138 65.258 279.161 64.992 A 12.021 12.021 0 0 0 279.825 64.8 A 28.744 28.744 0 0 0 281.803 64.087 Q 282.787 63.688 283.625 63.25 Q 285.021 62.52 286.123 61.9 A 62.119 62.119 0 0 0 286.475 61.7 A 5.827 5.827 0 0 1 287.514 61.228 A 4.194 4.194 0 0 1 288.85 61 A 3.16 3.16 0 0 1 289.489 61.062 A 2.373 2.373 0 0 1 290.15 61.3 A 2.817 2.817 0 0 1 290.985 62 A 3.331 3.331 0 0 1 291.1 62.15 L 294.7 66.65 Q 292.65 69.05 290.1 70.675 Q 287.55 72.3 284.775 73.275 Q 282 74.25 279.125 74.65 A 41.144 41.144 0 0 1 274.398 75.04 A 37.015 37.015 0 0 1 273.55 75.05 Q 268.2 75.05 263.6 73.275 Q 259 71.5 255.6 68.025 A 23.377 23.377 0 0 1 251.462 62.177 A 28.712 28.712 0 0 1 250.25 59.425 Q 248.3 54.3 248.3 47.55 A 28.799 28.799 0 0 1 249.51 39.136 A 26.85 26.85 0 0 1 250 37.675 A 23.845 23.845 0 0 1 254.484 30.058 A 22.939 22.939 0 0 1 254.875 29.625 A 22.74 22.74 0 0 1 261.919 24.521 A 26.28 26.28 0 0 1 262.625 24.2 Q 267.2 22.2 272.95 22.2 Q 277.8 22.2 281.875 23.75 Q 285.95 25.3 288.9 28.275 Q 291.85 31.25 293.5 35.575 Q 295.15 39.9 295.15 45.45 Q 295.15 46.85 295.025 47.775 A 5.647 5.647 0 0 1 294.918 48.351 Q 294.791 48.876 294.575 49.225 Q 294.25 49.75 293.7 49.975 A 2.702 2.702 0 0 1 293.204 50.121 Q 292.954 50.17 292.664 50.189 A 5.702 5.702 0 0 1 292.3 50.2 Z M 474.179 22.785 A 30.874 30.874 0 0 0 468.05 22.2 A 32.919 32.919 0 0 0 464.559 22.381 A 26.616 26.616 0 0 0 457.6 24.05 A 25.967 25.967 0 0 0 457.162 24.227 A 22.565 22.565 0 0 0 449.575 29.3 A 21.621 21.621 0 0 0 447.379 31.937 A 24.65 24.65 0 0 0 444.425 37.6 A 27.788 27.788 0 0 0 443.146 42.277 A 34.619 34.619 0 0 0 442.6 48.55 A 36.638 36.638 0 0 0 442.857 52.956 A 28.726 28.726 0 0 0 444.425 59.55 A 27.536 27.536 0 0 0 445.064 61.119 A 23.303 23.303 0 0 0 449.575 67.9 A 21.784 21.784 0 0 0 449.996 68.325 A 22.442 22.442 0 0 0 457.6 73.2 A 25.537 25.537 0 0 0 461.913 74.465 A 30.993 30.993 0 0 0 468.05 75.05 A 32.784 32.784 0 0 0 471.623 74.86 A 26.334 26.334 0 0 0 478.475 73.2 A 25.404 25.404 0 0 0 478.512 73.186 A 22.147 22.147 0 0 0 486.45 67.9 A 22.092 22.092 0 0 0 488.542 65.357 A 24.94 24.94 0 0 0 491.55 59.55 Q 493.35 54.65 493.35 48.55 A 36.832 36.832 0 0 0 493.118 44.35 A 29.147 29.147 0 0 0 491.55 37.6 A 26.929 26.929 0 0 0 490.757 35.671 A 22.518 22.518 0 0 0 486.45 29.3 Q 483.15 25.9 478.475 24.05 A 25.259 25.259 0 0 0 474.179 22.785 Z M 65.25 23 L 77.6 23 L 77.6 74.3 L 65.25 74.3 L 65.25 23 Z M 362.85 23 L 375.2 23 L 375.2 74.3 L 362.85 74.3 L 362.85 23 Z M 468.05 65.55 A 15.023 15.023 0 0 0 471.809 65.109 A 9.803 9.803 0 0 0 477.525 61.25 Q 479.722 58.178 480.349 53.065 A 36.341 36.341 0 0 0 480.6 48.65 A 35.938 35.938 0 0 0 480.315 43.959 Q 479.663 39.025 477.525 36 Q 474.45 31.65 468.05 31.65 A 15.287 15.287 0 0 0 464.32 32.077 A 9.901 9.901 0 0 0 458.45 36.025 A 14.694 14.694 0 0 0 456.457 40.173 Q 455.35 43.719 455.35 48.65 A 35.23 35.23 0 0 0 455.638 53.313 Q 455.946 55.612 456.583 57.494 A 14.143 14.143 0 0 0 458.45 61.225 A 9.995 9.995 0 0 0 464.75 65.227 A 15.89 15.89 0 0 0 468.05 65.55 Z M 420.45 59.1 L 420.45 36.1 A 14.73 14.73 0 0 0 418.541 34.156 A 10.624 10.624 0 0 0 415.875 32.5 A 13.436 13.436 0 0 0 410.772 31.452 A 15.355 15.355 0 0 0 410.55 31.45 A 12.892 12.892 0 0 0 407.43 31.815 A 10.971 10.971 0 0 0 405.475 32.5 A 9.891 9.891 0 0 0 401.724 35.543 A 11.544 11.544 0 0 0 401.625 35.675 Q 400.05 37.8 399.2 41.075 A 24.547 24.547 0 0 0 398.619 44.166 Q 398.417 45.764 398.367 47.572 A 44.057 44.057 0 0 0 398.35 48.8 A 46.844 46.844 0 0 0 398.452 51.982 Q 398.558 53.538 398.775 54.885 A 23 23 0 0 0 399.075 56.425 Q 399.8 59.55 401.15 61.525 Q 402.5 63.5 404.45 64.375 A 10.03 10.03 0 0 0 407.592 65.192 A 12.282 12.282 0 0 0 408.8 65.25 Q 412.65 65.25 415.35 63.65 A 17.154 17.154 0 0 0 418.293 61.423 A 23.073 23.073 0 0 0 420.45 59.1 Z M 27.05 42.6 L 13.45 42.6 L 13.45 63.8 L 27.1 63.8 A 25.933 25.933 0 0 0 29.74 63.673 Q 31.026 63.542 32.124 63.272 A 12.795 12.795 0 0 0 33.375 62.9 A 13.385 13.385 0 0 0 35.377 62.007 Q 36.469 61.401 37.288 60.632 A 8.182 8.182 0 0 0 37.425 60.5 Q 38.95 59 39.625 57 A 13.103 13.103 0 0 0 40.297 53.065 A 14.827 14.827 0 0 0 40.3 52.75 A 12.651 12.651 0 0 0 40.088 50.387 A 10.052 10.052 0 0 0 39.55 48.525 Q 38.8 46.65 37.2 45.325 A 9.399 9.399 0 0 0 35.246 44.094 Q 34.333 43.657 33.246 43.342 A 15.776 15.776 0 0 0 33.1 43.3 Q 31.052 42.726 28.298 42.623 A 33.211 33.211 0 0 0 27.05 42.6 Z M 13.45 12.4 L 13.45 33.3 L 24.2 33.3 A 30.19 30.19 0 0 0 27.976 33.08 Q 32.104 32.558 34.6 30.8 Q 38.133 28.312 38.15 22.903 A 16.715 16.715 0 0 0 38.15 22.85 Q 38.15 19.326 36.905 17.066 A 7.039 7.039 0 0 0 34.95 14.8 A 9.932 9.932 0 0 0 32.185 13.385 Q 29.306 12.4 24.95 12.4 L 13.45 12.4 Z M 100.65 42.75 L 123.85 42.75 A 15.788 15.788 0 0 0 123.457 39.185 A 14.254 14.254 0 0 0 123.2 38.225 A 10.573 10.573 0 0 0 121.605 35.013 A 9.996 9.996 0 0 0 121.2 34.5 A 9.352 9.352 0 0 0 118.182 32.156 A 10.954 10.954 0 0 0 117.8 31.975 A 10.152 10.152 0 0 0 115.272 31.227 A 13.909 13.909 0 0 0 113 31.05 A 15.425 15.425 0 0 0 109.565 31.41 Q 106.552 32.098 104.55 34.1 A 12.426 12.426 0 0 0 101.931 38.058 Q 101.049 40.124 100.65 42.75 Z M 260.85 42.75 L 284.05 42.75 A 15.788 15.788 0 0 0 283.657 39.185 A 14.254 14.254 0 0 0 283.4 38.225 A 10.573 10.573 0 0 0 281.805 35.013 A 9.996 9.996 0 0 0 281.4 34.5 A 9.352 9.352 0 0 0 278.382 32.156 A 10.954 10.954 0 0 0 278 31.975 A 10.152 10.152 0 0 0 275.472 31.227 A 13.909 13.909 0 0 0 273.2 31.05 A 15.425 15.425 0 0 0 269.765 31.41 Q 266.752 32.098 264.75 34.1 A 12.426 12.426 0 0 0 262.131 38.058 Q 261.249 40.124 260.85 42.75 Z M 79.45 8.05 Q 79.45 9.65 78.8 11.05 Q 78.15 12.45 77.075 13.5 Q 76 14.55 74.55 15.175 Q 73.1 15.8 71.45 15.8 Q 69.85 15.8 68.425 15.175 Q 67 14.55 65.95 13.5 Q 64.9 12.45 64.275 11.05 Q 63.65 9.65 63.65 8.05 Q 63.65 6.4 64.275 4.95 A 8.042 8.042 0 0 1 65.632 2.788 A 7.551 7.551 0 0 1 65.95 2.45 Q 67 1.4 68.425 0.775 Q 69.85 0.15 71.45 0.15 Q 73.1 0.15 74.55 0.775 Q 76 1.4 77.075 2.45 Q 78.15 3.5 78.8 4.95 Q 79.45 6.4 79.45 8.05 Z M 377.05 8.05 Q 377.05 9.65 376.4 11.05 Q 375.75 12.45 374.675 13.5 Q 373.6 14.55 372.15 15.175 Q 370.7 15.8 369.05 15.8 Q 367.45 15.8 366.025 15.175 Q 364.6 14.55 363.55 13.5 Q 362.5 12.45 361.875 11.05 Q 361.25 9.65 361.25 8.05 Q 361.25 6.4 361.875 4.95 A 8.042 8.042 0 0 1 363.232 2.788 A 7.551 7.551 0 0 1 363.55 2.45 Q 364.6 1.4 366.025 0.775 Q 367.45 0.15 369.05 0.15 Q 370.7 0.15 372.15 0.775 Q 373.6 1.4 374.675 2.45 Q 375.75 3.5 376.4 4.95 Q 377.05 6.4 377.05 8.05 Z" vector-effect="non-scaling-stroke"/>

</g>

</svg>