<svg id="visual" viewBox="0 0 900 600" width="900" height="600" xmlns="http://www.w3.org/2000/svg" xmlns:xlink="http://www.w3.org/1999/xlink" version="1.1">

    <rect x="0" y="0" width="900" height="600" fill="#202731">

    </rect>

    <path d="M194 0L187.8 14.3C181.7 28.7 169.3 57.3 172.5 85.8C175.7 114.3 194.3 142.7 191.8 171.2C189.3 199.7 165.7 228.3 158.7 257C151.7 285.7 161.3 314.3 167.8 343C174.3 371.7 177.7 400.3 176.7 428.8C175.7 457.3 170.3 485.7 177.5 514.2C184.7 542.7 204.3 571.3 214.2 585.7L224 600L0 600L0 585.7C0 571.3 0 542.7 0 514.2C0 485.7 0 457.3 0 428.8C0 400.3 0 371.7 0 343C0 314.3 0 285.7 0 257C0 228.3 0 199.7 0 171.2C0 142.7 0 114.3 0 85.8C0 57.3 0 28.7 0 14.3L0 0Z" fill="#fa7268"></path>
    
    <path d="M181 0L181.5 14.3C182 28.7 183 57.3 176 85.8C169 114.3 154 142.7 141.7 171.2C129.3 199.7 119.7 228.3 118.7 257C117.7 285.7 125.3 314.3 134.8 343C144.3 371.7 155.7 400.3 155.2 428.8C154.7 457.3 142.3 485.7 141.2 514.2C140 542.7 150 571.3 155 585.7L160 600L0 600L0 585.7C0 571.3 0 542.7 0 514.2C0 485.7 0 457.3 0 428.8C0 400.3 0 371.7 0 343C0 314.3 0 285.7 0 257C0 228.3 0 199.7 0 171.2C0 142.7 0 114.3 0 85.8C0 57.3 0 28.7 0 14.3L0 0Z" fill="#ef5f67"></path>
    
    <path d="M89 0L91.8 14.3C94.7 28.7 100.3 57.3 106.3 85.8C112.3 114.3 118.7 142.7 123 171.2C127.3 199.7 129.7 228.3 122.3 257C115 285.7 98 314.3 98.3 343C98.7 371.7 116.3 400.3 122.5 428.8C128.7 457.3 123.3 485.7 119.2 514.2C115 542.7 112 571.3 110.5 585.7L109 600L0 600L0 585.7C0 571.3 0 542.7 0 514.2C0 485.7 0 457.3 0 428.8C0 400.3 0 371.7 0 343C0 314.3 0 285.7 0 257C0 228.3 0 199.7 0 171.2C0 142.7 0 114.3 0 85.8C0 57.3 0 28.7 0 14.3L0 0Z" fill="#e34c67"></path>
    
    <path d="M104 0L104 14.3C104 28.7 104 57.3 98.5 85.8C93 114.3 82 142.7 77.5 171.2C73 199.7 75 228.3 73.7 257C72.3 285.7 67.7 314.3 70.7 343C73.7 371.7 84.3 400.3 87 428.8C89.7 457.3 84.3 485.7 81.2 514.2C78 542.7 77 571.3 76.5 585.7L76 600L0 600L0 585.7C0 571.3 0 542.7 0 514.2C0 485.7 0 457.3 0 428.8C0 400.3 0 371.7 0 343C0 314.3 0 285.7 0 257C0 228.3 0 199.7 0 171.2C0 142.7 0 114.3 0 85.8C0 57.3 0 28.7 0 14.3L0 0Z" fill="#d53867"></path>
    
    <path d="M46 0L44.2 14.3C42.3 28.7 38.7 57.3 38.2 85.8C37.7 114.3 40.3 142.7 41.8 171.2C43.3 199.7 43.7 228.3 41 257C38.3 285.7 32.7 314.3 33.3 343C34 371.7 41 400.3 42.3 428.8C43.7 457.3 39.3 485.7 38.7 514.2C38 542.7 41 571.3 42.5 585.7L44 600L0 600L0 585.7C0 571.3 0 542.7 0 514.2C0 485.7 0 457.3 0 428.8C0 400.3 0 371.7 0 343C0 314.3 0 285.7 0 257C0 228.3 0 199.7 0 171.2C0 142.7 0 114.3 0 85.8C0 57.3 0 28.7 0 14.3L0 0Z" fill="#c62368"></path>

</svg>