<svg id="visual" viewBox="0 0 900 600" width="900" height="600" xmlns="http://www.w3.org/2000/svg" xmlns:xlink="http://www.w3.org/1999/xlink" version="1.1">

    <path d="M192 0L192.2 14.3C192.3 28.7 192.7 57.3 193.3 85.8C194 114.3 195 142.7 187.2 171.2C179.3 199.7 162.7 228.3 164.8 257C167 285.7 188 314.3 197.2 343C206.3 371.7 203.7 400.3 197.8 428.8C192 457.3 183 485.7 183 514.2C183 542.7 192 571.3 196.5 585.7L201 600L0 600L0 585.7C0 571.3 0 542.7 0 514.2C0 485.7 0 457.3 0 428.8C0 400.3 0 371.7 0 343C0 314.3 0 285.7 0 257C0 228.3 0 199.7 0 171.2C0 142.7 0 114.3 0 85.8C0 57.3 0 28.7 0 14.3L0 0Z" fill="#fa7268"></path>

    <path d="M123 0L133.5 14.3C144 28.7 165 57.3 174.5 85.8C184 114.3 182 142.7 169.7 171.2C157.3 199.7 134.7 228.3 129.2 257C123.7 285.7 135.3 314.3 142.7 343C150 371.7 153 400.3 146.7 428.8C140.3 457.3 124.7 485.7 116.8 514.2C109 542.7 109 571.3 109 585.7L109 600L0 600L0 585.7C0 571.3 0 542.7 0 514.2C0 485.7 0 457.3 0 428.8C0 400.3 0 371.7 0 343C0 314.3 0 285.7 0 257C0 228.3 0 199.7 0 171.2C0 142.7 0 114.3 0 85.8C0 57.3 0 28.7 0 14.3L0 0Z" fill="#ef5f67"></path>

    <path d="M85 0L85.5 14.3C86 28.7 87 57.3 95.3 85.8C103.7 114.3 119.3 142.7 122.3 171.2C125.3 199.7 115.7 228.3 113.5 257C111.3 285.7 116.7 314.3 118 343C119.3 371.7 116.7 400.3 118 428.8C119.3 457.3 124.7 485.7 129.5 514.2C134.3 542.7 138.7 571.3 140.8 585.7L143 600L0 600L0 585.7C0 571.3 0 542.7 0 514.2C0 485.7 0 457.3 0 428.8C0 400.3 0 371.7 0 343C0 314.3 0 285.7 0 257C0 228.3 0 199.7 0 171.2C0 142.7 0 114.3 0 85.8C0 57.3 0 28.7 0 14.3L0 0Z" fill="#e34c67"></path>

    <path d="M84 0L82.5 14.3C81 28.7 78 57.3 78.8 85.8C79.7 114.3 84.3 142.7 84.2 171.2C84 199.7 79 228.3 75.3 257C71.7 285.7 69.3 314.3 71.5 343C73.7 371.7 80.3 400.3 86 428.8C91.7 457.3 96.3 485.7 92.8 514.2C89.3 542.7 77.7 571.3 71.8 585.7L66 600L0 600L0 585.7C0 571.3 0 542.7 0 514.2C0 485.7 0 457.3 0 428.8C0 400.3 0 371.7 0 343C0 314.3 0 285.7 0 257C0 228.3 0 199.7 0 171.2C0 142.7 0 114.3 0 85.8C0 57.3 0 28.7 0 14.3L0 0Z" fill="#d53867"></path>

    <path d="M54 0L49.5 14.3C45 28.7 36 57.3 37.2 85.8C38.3 114.3 49.7 142.7 55.7 171.2C61.7 199.7 62.3 228.3 62.3 257C62.3 285.7 61.7 314.3 59.2 343C56.7 371.7 52.3 400.3 49.7 428.8C47 457.3 46 485.7 47.5 514.2C49 542.7 53 571.3 55 585.7L57 600L0 600L0 585.7C0 571.3 0 542.7 0 514.2C0 485.7 0 457.3 0 428.8C0 400.3 0 371.7 0 343C0 314.3 0 285.7 0 257C0 228.3 0 199.7 0 171.2C0 142.7 0 114.3 0 85.8C0 57.3 0 28.7 0 14.3L0 0Z" fill="#c62368"></path>

</svg>