<svg id="visual" viewBox="0 0 900 600" width="900" height="600" xmlns="http://www.w3.org/2000/svg" xmlns:xlink="http://www.w3.org/1999/xlink" version="1.1">

    <path d="M154 0L157.8 14.3C161.7 28.7 169.3 57.3 168.7 85.8C168 114.3 159 142.7 152.3 171.2C145.7 199.7 141.3 228.3 139.8 257C138.3 285.7 139.7 314.3 147.8 343C156 371.7 171 400.3 177.8 428.8C184.7 457.3 183.3 485.7 181.3 514.2C179.3 542.7 176.7 571.3 175.3 585.7L174 600L0 600L0 585.7C0 571.3 0 542.7 0 514.2C0 485.7 0 457.3 0 428.8C0 400.3 0 371.7 0 343C0 314.3 0 285.7 0 257C0 228.3 0 199.7 0 171.2C0 142.7 0 114.3 0 85.8C0 57.3 0 28.7 0 14.3L0 0Z" fill="#fa7268"></path>

    <path d="M149 0L144.5 14.3C140 28.7 131 57.3 135.8 85.8C140.7 114.3 159.3 142.7 168.7 171.2C178 199.7 178 228.3 177.8 257C177.7 285.7 177.3 314.3 168.2 343C159 371.7 141 400.3 131.3 428.8C121.7 457.3 120.3 485.7 127.7 514.2C135 542.7 151 571.3 159 585.7L167 600L0 600L0 585.7C0 571.3 0 542.7 0 514.2C0 485.7 0 457.3 0 428.8C0 400.3 0 371.7 0 343C0 314.3 0 285.7 0 257C0 228.3 0 199.7 0 171.2C0 142.7 0 114.3 0 85.8C0 57.3 0 28.7 0 14.3L0 0Z" fill="#ef5f67"></path>

    <path d="M147 0L144.7 14.3C142.3 28.7 137.7 57.3 128.3 85.8C119 114.3 105 142.7 103.7 171.2C102.3 199.7 113.7 228.3 117.3 257C121 285.7 117 314.3 119.3 343C121.7 371.7 130.3 400.3 133.7 428.8C137 457.3 135 485.7 130 514.2C125 542.7 117 571.3 113 585.7L109 600L0 600L0 585.7C0 571.3 0 542.7 0 514.2C0 485.7 0 457.3 0 428.8C0 400.3 0 371.7 0 343C0 314.3 0 285.7 0 257C0 228.3 0 199.7 0 171.2C0 142.7 0 114.3 0 85.8C0 57.3 0 28.7 0 14.3L0 0Z" fill="#e34c67"></path>

    <path d="M102 0L96 14.3C90 28.7 78 57.3 72.2 85.8C66.3 114.3 66.7 142.7 65.8 171.2C65 199.7 63 228.3 63.8 257C64.7 285.7 68.3 314.3 74.8 343C81.3 371.7 90.7 400.3 91.8 428.8C93 457.3 86 485.7 81.2 514.2C76.3 542.7 73.7 571.3 72.3 585.7L71 600L0 600L0 585.7C0 571.3 0 542.7 0 514.2C0 485.7 0 457.3 0 428.8C0 400.3 0 371.7 0 343C0 314.3 0 285.7 0 257C0 228.3 0 199.7 0 171.2C0 142.7 0 114.3 0 85.8C0 57.3 0 28.7 0 14.3L0 0Z" fill="#d53867"></path>

    <path d="M37 0L41.5 14.3C46 28.7 55 57.3 56 85.8C57 114.3 50 142.7 49.7 171.2C49.3 199.7 55.7 228.3 54.2 257C52.7 285.7 43.3 314.3 42.3 343C41.3 371.7 48.7 400.3 47.5 428.8C46.3 457.3 36.7 485.7 34.7 514.2C32.7 542.7 38.3 571.3 41.2 585.7L44 600L0 600L0 585.7C0 571.3 0 542.7 0 514.2C0 485.7 0 457.3 0 428.8C0 400.3 0 371.7 0 343C0 314.3 0 285.7 0 257C0 228.3 0 199.7 0 171.2C0 142.7 0 114.3 0 85.8C0 57.3 0 28.7 0 14.3L0 0Z" fill="#c62368"></path>

</svg>