<svg id="visual" viewBox="0 0 960 300" width="960" height="300" xmlns="http://www.w3.org/2000/svg" xmlns:xlink="http://www.w3.org/1999/xlink" version="1.1"><rect x="0" y="0" width="960" height="300" fill="#202731"></rect><path d="M0 199L16 204.8C32 210.7 64 222.3 96 227.2C128 232 160 230 192 225.7C224 221.3 256 214.7 288 213.2C320 211.7 352 215.3 384 216.7C416 218 448 217 480 217.3C512 217.7 544 219.3 576 222.5C608 225.7 640 230.3 672 227C704 223.7 736 212.3 768 207.7C800 203 832 205 864 206.2C896 207.3 928 207.7 944 207.8L960 208L960 301L944 301C928 301 896 301 864 301C832 301 800 301 768 301C736 301 704 301 672 301C640 301 608 301 576 301C544 301 512 301 480 301C448 301 416 301 384 301C352 301 320 301 288 301C256 301 224 301 192 301C160 301 128 301 96 301C64 301 32 301 16 301L0 301Z" fill="#7363dd"></path><path d="M0 228L16 227.2C32 226.3 64 224.7 96 227.7C128 230.7 160 238.3 192 239.5C224 240.7 256 235.3 288 236C320 236.7 352 243.3 384 245.7C416 248 448 246 480 244.8C512 243.7 544 243.3 576 243.2C608 243 640 243 672 244.5C704 246 736 249 768 248.8C800 248.7 832 245.3 864 241.7C896 238 928 234 944 232L960 230L960 301L944 301C928 301 896 301 864 301C832 301 800 301 768 301C736 301 704 301 672 301C640 301 608 301 576 301C544 301 512 301 480 301C448 301 416 301 384 301C352 301 320 301 288 301C256 301 224 301 192 301C160 301 128 301 96 301C64 301 32 301 16 301L0 301Z" fill="#bb48c4"></path><path d="M0 266L16 266C32 266 64 266 96 264.3C128 262.7 160 259.3 192 258.8C224 258.3 256 260.7 288 262.7C320 264.7 352 266.3 384 264.5C416 262.7 448 257.3 480 257C512 256.7 544 261.3 576 261.2C608 261 640 256 672 254C704 252 736 253 768 253.2C800 253.3 832 252.7 864 254.7C896 256.7 928 261.3 944 263.7L960 266L960 301L944 301C928 301 896 301 864 301C832 301 800 301 768 301C736 301 704 301 672 301C640 301 608 301 576 301C544 301 512 301 480 301C448 301 416 301 384 301C352 301 320 301 288 301C256 301 224 301 192 301C160 301 128 301 96 301C64 301 32 301 16 301L0 301Z" fill="#e91e9a"></path><path d="M0 278L16 279.5C32 281 64 284 96 283.7C128 283.3 160 279.7 192 277.8C224 276 256 276 288 275.8C320 275.7 352 275.3 384 275.5C416 275.7 448 276.3 480 277.2C512 278 544 279 576 280.5C608 282 640 284 672 284C704 284 736 282 768 279.7C800 277.3 832 274.7 864 275.3C896 276 928 280 944 282L960 284L960 301L944 301C928 301 896 301 864 301C832 301 800 301 768 301C736 301 704 301 672 301C640 301 608 301 576 301C544 301 512 301 480 301C448 301 416 301 384 301C352 301 320 301 288 301C256 301 224 301 192 301C160 301 128 301 96 301C64 301 32 301 16 301L0 301Z" fill="#ff0066"></path></svg>