<svg id="visual" viewBox="0 0 960 300" width="960" height="300" xmlns="http://www.w3.org/2000/svg" xmlns:xlink="http://www.w3.org/1999/xlink" version="1.1"><rect x="0" y="0" width="960" height="300" fill="#202731"></rect><path d="M0 99L16 93.2C32 87.3 64 75.7 96 70.8C128 66 160 68 192 72.3C224 76.7 256 83.3 288 84.8C320 86.3 352 82.7 384 81.3C416 80 448 81 480 80.7C512 80.3 544 78.7 576 75.5C608 72.3 640 67.7 672 71C704 74.3 736 85.7 768 90.3C800 95 832 93 864 91.8C896 90.7 928 90.3 944 90.2L960 90L960 0L944 0C928 0 896 0 864 0C832 0 800 0 768 0C736 0 704 0 672 0C640 0 608 0 576 0C544 0 512 0 480 0C448 0 416 0 384 0C352 0 320 0 288 0C256 0 224 0 192 0C160 0 128 0 96 0C64 0 32 0 16 0L0 0Z" fill="#7363dd"></path><path d="M0 70L16 70.8C32 71.7 64 73.3 96 70.3C128 67.3 160 59.7 192 58.5C224 57.3 256 62.7 288 62C320 61.3 352 54.7 384 52.3C416 50 448 52 480 53.2C512 54.3 544 54.7 576 54.8C608 55 640 55 672 53.5C704 52 736 49 768 49.2C800 49.3 832 52.7 864 56.3C896 60 928 64 944 66L960 68L960 0L944 0C928 0 896 0 864 0C832 0 800 0 768 0C736 0 704 0 672 0C640 0 608 0 576 0C544 0 512 0 480 0C448 0 416 0 384 0C352 0 320 0 288 0C256 0 224 0 192 0C160 0 128 0 96 0C64 0 32 0 16 0L0 0Z" fill="#bb48c4"></path><path d="M0 32L16 32C32 32 64 32 96 33.7C128 35.3 160 38.7 192 39.2C224 39.7 256 37.3 288 35.3C320 33.3 352 31.7 384 33.5C416 35.3 448 40.7 480 41C512 41.3 544 36.7 576 36.8C608 37 640 42 672 44C704 46 736 45 768 44.8C800 44.7 832 45.3 864 43.3C896 41.3 928 36.7 944 34.3L960 32L960 0L944 0C928 0 896 0 864 0C832 0 800 0 768 0C736 0 704 0 672 0C640 0 608 0 576 0C544 0 512 0 480 0C448 0 416 0 384 0C352 0 320 0 288 0C256 0 224 0 192 0C160 0 128 0 96 0C64 0 32 0 16 0L0 0Z" fill="#e91e9a"></path><path d="M0 20L16 18.5C32 17 64 14 96 14.3C128 14.7 160 18.3 192 20.2C224 22 256 22 288 22.2C320 22.3 352 22.7 384 22.5C416 22.3 448 21.7 480 20.8C512 20 544 19 576 17.5C608 16 640 14 672 14C704 14 736 16 768 18.3C800 20.7 832 23.3 864 22.7C896 22 928 18 944 16L960 14L960 0L944 0C928 0 896 0 864 0C832 0 800 0 768 0C736 0 704 0 672 0C640 0 608 0 576 0C544 0 512 0 480 0C448 0 416 0 384 0C352 0 320 0 288 0C256 0 224 0 192 0C160 0 128 0 96 0C64 0 32 0 16 0L0 0Z" fill="#ff0066"></path></svg>