<svg id="visual" viewBox="0 0 900 300" width="900" height="300" xmlns="http://www.w3.org/2000/svg" xmlns:xlink="http://www.w3.org/1999/xlink" version="1.1"><rect x="0" y="0" width="900" height="300" fill="#001220"></rect><path d="M0 106L21.5 102.7C43 99.3 86 92.7 128.8 95.3C171.7 98 214.3 110 257.2 112.5C300 115 343 108 385.8 106C428.7 104 471.3 107 514.2 107.8C557 108.7 600 107.3 642.8 109.2C685.7 111 728.3 116 771.2 117.3C814 118.7 857 116.3 878.5 115.2L900 114L900 0L878.5 0C857 0 814 0 771.2 0C728.3 0 685.7 0 642.8 0C600 0 557 0 514.2 0C471.3 0 428.7 0 385.8 0C343 0 300 0 257.2 0C214.3 0 171.7 0 128.8 0C86 0 43 0 21.5 0L0 0Z" fill="#fa7268"></path><path d="M0 71L21.5 69.5C43 68 86 65 128.8 65C171.7 65 214.3 68 257.2 70C300 72 343 73 385.8 71C428.7 69 471.3 64 514.2 66.2C557 68.3 600 77.7 642.8 79.7C685.7 81.7 728.3 76.3 771.2 73C814 69.7 857 68.3 878.5 67.7L900 67L900 0L878.5 0C857 0 814 0 771.2 0C728.3 0 685.7 0 642.8 0C600 0 557 0 514.2 0C471.3 0 428.7 0 385.8 0C343 0 300 0 257.2 0C214.3 0 171.7 0 128.8 0C86 0 43 0 21.5 0L0 0Z" fill="#ef5f67"></path><path d="M0 55L21.5 53.3C43 51.7 86 48.3 128.8 48.7C171.7 49 214.3 53 257.2 55.2C300 57.3 343 57.7 385.8 56.8C428.7 56 471.3 54 514.2 53.7C557 53.3 600 54.7 642.8 59.2C685.7 63.7 728.3 71.3 771.2 70.8C814 70.3 857 61.7 878.5 57.3L900 53L900 0L878.5 0C857 0 814 0 771.2 0C728.3 0 685.7 0 642.8 0C600 0 557 0 514.2 0C471.3 0 428.7 0 385.8 0C343 0 300 0 257.2 0C214.3 0 171.7 0 128.8 0C86 0 43 0 21.5 0L0 0Z" fill="#e34c67"></path><path d="M0 33L21.5 35.7C43 38.3 86 43.7 128.8 42.8C171.7 42 214.3 35 257.2 31.3C300 27.7 343 27.3 385.8 28.5C428.7 29.7 471.3 32.3 514.2 35.5C557 38.7 600 42.3 642.8 41.8C685.7 41.3 728.3 36.7 771.2 38.2C814 39.7 857 47.3 878.5 51.2L900 55L900 0L878.5 0C857 0 814 0 771.2 0C728.3 0 685.7 0 642.8 0C600 0 557 0 514.2 0C471.3 0 428.7 0 385.8 0C343 0 300 0 257.2 0C214.3 0 171.7 0 128.8 0C86 0 43 0 21.5 0L0 0Z" fill="#d53867"></path><path d="M0 36L21.5 35.7C43 35.3 86 34.7 128.8 33.2C171.7 31.7 214.3 29.3 257.2 28.7C300 28 343 29 385.8 27.5C428.7 26 471.3 22 514.2 19.5C557 17 600 16 642.8 16.5C685.7 17 728.3 19 771.2 22.2C814 25.3 857 29.7 878.5 31.8L900 34L900 0L878.5 0C857 0 814 0 771.2 0C728.3 0 685.7 0 642.8 0C600 0 557 0 514.2 0C471.3 0 428.7 0 385.8 0C343 0 300 0 257.2 0C214.3 0 171.7 0 128.8 0C86 0 43 0 21.5 0L0 0Z" fill="#c62368"></path></svg>