<svg id="visual" viewBox="0 0 900 600" width="900" height="600" xmlns="http://www.w3.org/2000/svg" xmlns:xlink="http://www.w3.org/1999/xlink" version="1.1">

<rect x="0" y="0" width="900" height="600" fill="#931C1C"></rect>

<path d="M681 600L728 514L676 429L764 343L750 257L721 171L738 86L720 0L900 0L900 86L900 171L900 257L900 343L900 429L900 514L900 600Z" fill="#f5730a"></path>

<path d="M785 600L721 514L753 429L737 343L720 257L750 171L726 86L733 0L900 0L900 86L900 171L900 257L900 343L900 429L900 514L900 600Z" fill="#da5b09"></path>

<path d="M778 600L761 514L805 429L758 343L804 257L808 171L808 86L798 0L900 0L900 86L900 171L900 257L900 343L900 429L900 514L900 600Z" fill="#be4407"></path>

<path d="M827 600L822 514L842 429L832 343L841 257L820 171L821 86L802 0L900 0L900 86L900 171L900 257L900 343L900 429L900 514L900 600Z" fill="#a32d04"></path>

<path d="M849 600L878 514L860 429L870 343L869 257L870 171L850 86L844 0L900 0L900 86L900 171L900 257L900 343L900 429L900 514L900 600Z" fill="#871400"></path>

</svg>