<svg id="visual" viewBox="0 0 900 600" width="900" height="600" xmlns="http://www.w3.org/2000/svg" xmlns:xlink="http://www.w3.org/1999/xlink" version="1.1">

<rect x="0" y="0" width="900" height="600" fill="#931C1C"></rect>

    <path d="M716 600L727 514L723 429L684 343L751 257L726 171L685 86L710 0L900 0L900 86L900 171L900 257L900 343L900 429L900 514L900 600Z" fill="#f5730a"></path>

    <path d="M735 600L763 514L769 429L783 343L754 257L787 171L720 86L785 0L900 0L900 86L900 171L900 257L900 343L900 429L900 514L900 600Z" fill="#da5b09"></path>

    <path d="M789 600L795 514L784 429L756 343L800 257L811 171L806 86L784 0L900 0L900 86L900 171L900 257L900 343L900 429L900 514L900 600Z" fill="#be4407"></path>

    <path d="M839 600L833 514L821 429L835 343L844 257L831 171L809 86L832 0L900 0L900 86L900 171L900 257L900 343L900 429L900 514L900 600Z" fill="#a32d04"></path>

    <path d="M864 600L857 514L874 429L834 343L873 257L840 171L864 86L837 0L900 0L900 86L900 171L900 257L900 343L900 429L900 514L900 600Z" fill="#871400"></path>

</svg>