<svg id="visual" viewBox="0 0 900 600" width="900" height="600" xmlns="http://www.w3.org/2000/svg" xmlns:xlink="http://www.w3.org/1999/xlink" version="1.1">

<rect x="0" y="0" width="900" height="600" fill="#931C1C"></rect>

<path d="M748 600L731 514L759 429L714 343L727 257L688 171L712 86L765 0L900 0L900 86L900 171L900 257L900 343L900 429L900 514L900 600Z" fill="#f5730a"></path>

<path d="M791 600L772 514L735 429L765 343L752 257L732 171L742 86L742 0L900 0L900 86L900 171L900 257L900 343L900 429L900 514L900 600Z" fill="#da5b09"></path>

<path d="M771 600L767 514L790 429L781 343L774 257L807 171L792 86L801 0L900 0L900 86L900 171L900 257L900 343L900 429L900 514L900 600Z" fill="#be4407"></path>

<path d="M830 600L829 514L817 429L842 343L848 257L816 171L847 86L796 0L900 0L900 86L900 171L900 257L900 343L900 429L900 514L900 600Z" fill="#a32d04"></path>

<path d="M854 600L836 514L854 429L848 343L864 257L853 171L845 86L855 0L900 0L900 86L900 171L900 257L900 343L900 429L900 514L900 600Z" fill="#871400"></path>

</svg>